# xmcd
#
# Track frame offsets:
#	225
#	14188
#	40204
#	61159
#	78345
#	99328
#	124259
#	142711
#	161073
#	178911
#	199130
#	218915
#	236811
#	255790
#	272379
#	290795
#
# Disc length: 4027 seconds
#
# Revision: 1
# Processed by: cddbd v1.4b42PL1 Copyright (c) Steve Scherf et al.
# Submitted via: audiograbber 1.80
#
DISCID=e60fb810
DTITLE=Boston Dance Orchestra - Music Moods Sound Of Silence
DYEAR=1900
DGENRE=
TTITLE0=Sound Of Silence
TTITLE1=Brother In Arms
TTITLE2=One More Night
TTITLE3=Eternal Flame
TTITLE4=It Must Have Been Love
TTITLE5=Through The Barricades
TTITLE6=Right Here Waiting
TTITLE7=Lily Was Here
TTITLE8=Miss You Like Crazy
TTITLE9=Every Beat Of My Heart
TTITLE10=Sailing
TTITLE11=Your Song
TTITLE12=Missing You
TTITLE13=You'll Be A Woman Soon
TTITLE14=Hello
TTITLE15=And I Love Her
EXTD=mcps 41071
EXTT0=
EXTT1=
EXTT2=
EXTT3=
EXTT4=
EXTT5=
EXTT6=
EXTT7=
EXTT8=
EXTT9=
EXTT10=
EXTT11=
EXTT12=
EXTT13=
EXTT14=
EXTT15=
PLAYORDER=
